<svg xmlns="http://www.w3.org/2000/svg" version="1.1" xmlns:xlink="http://www.w3.org/1999/xlink" preserveAspectRatio="none" x="0px" y="0px" width="485px" height="552px" viewBox="0 0 485 552" id="S1QeKaiU3sG">
    <style xmlns="http://www.w3.org/1999/xhtml">
        @-webkit-keyframes rkueF6iLhsM_Animation{15%{opacity:  0.2;}35%{opacity:  1;}50%{opacity:  1;}80%{opacity:  0.2;}0%{opacity:  0.2;}100%{opacity:  0.2;}}@keyframes rkueF6iLhsM_Animation{15%{opacity:  0.2;}35%{opacity:  1;}50%{opacity:  1;}80%{opacity:  0.2;}0%{opacity:  0.2;}100%{opacity:  0.2;}}@-webkit-keyframes rkueF6iLhsM_Skh0nLhsM_Animation{15%{-webkit-transform:  scale(0.2, 0.2);transform:  scale(0.2, 0.2);}80%{-webkit-transform:  scale(4, 4);transform:  scale(4, 4);}0%{-webkit-transform:  scale(0.2, 0.2);transform:  scale(0.2, 0.2);}100%{-webkit-transform:  scale(4, 4);transform:  scale(4, 4);}}@keyframes rkueF6iLhsM_Skh0nLhsM_Animation{15%{-webkit-transform:  scale(0.2, 0.2);transform:  scale(0.2, 0.2);}80%{-webkit-transform:  scale(4, 4);transform:  scale(4, 4);}0%{-webkit-transform:  scale(0.2, 0.2);transform:  scale(0.2, 0.2);}100%{-webkit-transform:  scale(4, 4);transform:  scale(4, 4);}}@-webkit-keyframes rkueF6iLhsM_BJHCh8hjM_Animation{15%{-webkit-transform:  translate(243px, 290px);transform:  translate(243px, 290px);}80%{-webkit-transform:  translate(243px, 290px);transform:  translate(243px, 290px);}0%{-webkit-transform:  translate(243px, 290px);transform:  translate(243px, 290px);}100%{-webkit-transform:  translate(243px, 290px);transform:  translate(243px, 290px);}}@keyframes rkueF6iLhsM_BJHCh8hjM_Animation{15%{-webkit-transform:  translate(243px, 290px);transform:  translate(243px, 290px);}80%{-webkit-transform:  translate(243px, 290px);transform:  translate(243px, 290px);}0%{-webkit-transform:  translate(243px, 290px);transform:  translate(243px, 290px);}100%{-webkit-transform:  translate(243px, 290px);transform:  translate(243px, 290px);}}#S1QeKaiU3sG *{-webkit-animation-duration:  2s;animation-duration:  2s;-webkit-animation-iteration-count:  infinite;animation-iteration-count:  infinite;-webkit-animation-timing-function:  cubic-bezier(0, 0, 1, 1);animation-timing-function:  cubic-bezier(0, 0, 1, 1);transform-box:  fill-box;-webkit-transform-origin:  50% 50%;transform-origin:  50% 50%;}#BkElYpiLnjz{-webkit-transform:  matrix(,1,,0,,0,,1,,0,0);transform:  matrix(,1,,0,,0,,1,,0,0);}#rJvgtpiI2iz{-webkit-transform:  matrix(,1,,0,,0,,1,,242.95,317.15);transform:  matrix(,1,,0,,0,,1,,242.95,317.15);}#rkueF6iLhsM{-webkit-transform:  matrix(,1,,0,,0,,1,,0,0);transform:  matrix(,1,,0,,0,,1,,0,0);-webkit-animation-name:  rkueF6iLhsM_Animation;animation-name:  rkueF6iLhsM_Animation;-webkit-transform-origin:  50% 50%;transform-origin:  50% 50%;opacity:  0.2;}#rkueF6iLhsM_BJHCh8hjM{-webkit-transform-origin:  50% 50%;transform-origin:  50% 50%;-webkit-transform:  translate(243px, 290px);transform:  translate(243px, 290px);-webkit-animation-name:  rkueF6iLhsM_BJHCh8hjM_Animation;animation-name:  rkueF6iLhsM_BJHCh8hjM_Animation;}#rkueF6iLhsM_Skh0nLhsM{-webkit-animation-name:  rkueF6iLhsM_Skh0nLhsM_Animation;animation-name:  rkueF6iLhsM_Skh0nLhsM_Animation;-webkit-transform-origin:  50% 50%;transform-origin:  50% 50%;-webkit-transform:  scale(0.2, 0.2);transform:  scale(0.2, 0.2);}
    </style>
    <defs>
        <radialGradient id="Gradient_1" gradientUnits="userSpaceOnUse" cx="0" cy="0" r="229.45000000000002" fx="0" fy="0" gradientTransform="matrix( 1, 0, 0, 1, 0.65,0) " spreadMethod="pad">
            <stop offset="29.019607843137255%" stop-color="#000000"/>
            <stop offset="41.568627450980394%" stop-color="#FFFFFF"/>
            <stop offset="48.23529411764706%" stop-color="#FFFFFF"/>
            <stop offset="58.431372549019606%" stop-color="#000000"/>
        </radialGradient>
        <filter id="Filter_1" x="-20%" y="-20%" width="140%" height="140%" color-interpolation-filters="sRGB">
            <feColorMatrix in="SourceGraphic" type="matrix" values="1 0 0 0 0 0 1 0 0 0 0 0 1 0 0 0 0 0 0.58 0" result="result1"/>
        </filter>
        <g id="Layer2_0_FILL">
            <path fill="#000000" stroke="none" d="&#10;M 405.95 455.95&#10;L 405.95 472.25 447.6 472.25&#10;Q 448.35 473.35 449.4 474.4 453.55 478.4 459.45 478.4 465.35 478.4 469.55 474.4 473.7 470.2 473.7 464.3 473.7 458.25 469.55 454.25 465.35 450.05 459.45 450.05 453.55 450.05 449.4 454.25 448.5 455.1 447.8 456.1&#10;L 405.95 455.95&#10;M 459.2 459.15&#10;Q 461.25 459.15 462.7 460.6 464.15 462 464.15 464.1 464.15 466.15 462.7 467.6 461.25 469 459.2 469 457.15 469 455.7 467.6 454.25 466.15 454.25 464.1 454.25 462 455.7 460.6 457.15 459.15 459.2 459.15&#10;M 449.4 422.15&#10;Q 448.5 423 448 423.65&#10;L 405.95 423.6 405.95 439.9 447.45 439.9&#10;Q 448.3 441.2 449.4 442.3 453.55 446.3 459.45 446.3 465.35 446.3 469.55 442.3 473.7 438.1 473.7 432.2 473.7 426.15 469.55 422.15 465.35 417.95 459.45 417.95 453.55 417.95 449.4 422.15&#10;M 455.7 428.5&#10;Q 457.15 427.05 459.2 427.05 461.25 427.05 462.7 428.5 464.15 429.9 464.15 432 464.15 434.05 462.7 435.5 461.25 436.9 459.2 436.9 457.15 436.9 455.7 435.5 454.25 434.05 454.25 432 454.25 429.9 455.7 428.5&#10;M 82.65 472.15&#10;L 82.65 455.85 40.45 455.85&#10;Q 39.8 455 39 454.25 34.85 450.05 28.95 450.05 23.05 450.05 18.85 454.25 14.7 458.25 14.7 464.3 14.7 470.2 18.85 474.4 23.05 478.4 28.95 478.4 34.85 478.4 39 474.4 40.05 473.35 40.9 472.15&#10;L 82.65 472.15&#10;M 25.7 460.6&#10;Q 27.15 459.15 29.2 459.15 31.25 459.15 32.7 460.6 34.15 462 34.15 464.1 34.15 466.15 32.7 467.6 31.25 469 29.2 469 27.15 469 25.7 467.6 24.25 466.15 24.25 464.1 24.25 462 25.7 460.6&#10;M 82.65 439.8&#10;L 82.65 423.5 40.25 423.5&#10;Q 39.7 422.8 39 422.15 34.85 417.95 28.95 417.95 23.05 417.95 18.85 422.15 14.7 426.15 14.7 432.2 14.7 438.1 18.85 442.3 23.05 446.3 28.95 446.3 34.85 446.3 39 442.3 40.2 441.1 41.05 439.8&#10;L 82.65 439.8&#10;M 32.7 428.5&#10;Q 34.15 429.9 34.15 432 34.15 434.05 32.7 435.5 31.25 436.9 29.2 436.9 27.15 436.9 25.7 435.5 24.25 434.05 24.25 432 24.25 429.9 25.7 428.5 27.15 427.05 29.2 427.05 31.25 427.05 32.7 428.5&#10;M 217.35 489.15&#10;L 201.65 489.15 201.65 550.55 217.35 550.55 217.35 489.15&#10;M 186.95 441.05&#10;L 169.65 441.05 169.65 550.55 186.95 550.55 186.95 441.05&#10;M 269.25 441.05&#10;L 269.25 456.75 217.35 456.75 217.35 441.05 201.65 441.05 201.65 473.05 234.95 473.05 234.95 550.55 251.35 550.55 251.35 473.05 285.4 473.05 285.4 441.05 269.25 441.05&#10;M 285.4 489.15&#10;L 269.25 489.15 269.25 550.55 285.4 550.55 285.4 489.15&#10;M 318.7 441.05&#10;L 301.35 441.05 301.35 550.55 318.7 550.55 318.7 441.05&#10;M 207.1 314.15&#10;L 207.1 345.3 235.35 345.3 235.35 373.7 185.3 389.05 185.3 358.1 169.15 358.1 169.2 425.55 243.35 404.45 318.8 425.85 318.8 358 300.95 357.9 301 388.7 251.45 373.85 251.5 345.3 279.85 345.3 279.85 314.15 207.1 314.15&#10;M 5.35 360.05&#10;L 5.35 375.7 137.25 375.7 137.25 503.3 152.35 503.3 152.35 360.05 5.35 360.05&#10;M 28.95 386.45&#10;Q 23.05 386.45 18.85 390.65 14.7 394.65 14.7 400.7 14.7 406.6 18.85 410.8 23.05 414.8 28.95 414.8 34.85 414.8 39 410.8 40.25 409.55 41.1 408.2&#10;L 103.05 408.2 103.05 503.55 119.55 503.55 119.55 391.9 40.2 391.9&#10;Q 39.65 391.25 39 390.65 34.85 386.45 28.95 386.45&#10;M 24.25 400.5&#10;Q 24.25 398.4 25.7 397 27.15 395.55 29.2 395.55 31.25 395.55 32.7 397 34.15 398.4 34.15 400.5 34.15 402.55 32.7 404 31.25 405.4 29.2 405.4 27.15 405.4 25.7 404 24.25 402.55 24.25 400.5&#10;M 5.2 326.1&#10;L 5.2 341.5 152.5 341.5 152.5 326.1 5.2 326.1&#10;M 147.3 213&#10;L 147.3 264.6 193.15 273.5 193.1 294.95 210.35 294.95 210.35 245.65 164.25 235.45 164.25 213 147.3 213&#10;M 71.55 149.35&#10;L 6.25 149.35 6.25 308.5 118.6 308.5 118.6 293.3 20.65 293.35 20.65 164.95 86.75 164.9 86.75 90 71.55 90 71.55 149.35&#10;M 54.75 90.05&#10;L 38.25 90.05 38.25 132.5 54.75 132.5 54.75 90.05&#10;M 111.45 41.1&#10;Q 105.55 41.1 101.35 45.3 97.2 49.3 97.2 55.35 97.2 61.25 101.35 65.45 102.35 66.45 103.75 67.35&#10;L 103.75 139.7 103.75 143.55&#10;Q 102.5 144.4 101.35 145.5 97.2 149.5 97.2 155.55 97.2 161.45 101.35 165.65 105.6 169.65 111.45 169.65 117.35 169.65 121.5 165.65 125.7 161.45 125.7 155.55 125.7 149.5 121.5 145.5 120.3 144.3 119 143.45&#10;L 119 143.3 119 142.7 119 139.7 118.95 68.05 119 67.4&#10;Q 120.35 66.5 121.5 65.45 125.7 61.25 125.7 55.35 125.7 49.3 121.5 45.3 117.4 41.1 111.45 41.1&#10;M 115.2 58.65&#10;Q 113.75 60.05 111.7 60.05 109.65 60.05 108.2 58.65 106.75 57.2 106.75 55.15 106.75 53.05 108.2 51.65 109.65 50.2 111.7 50.2 113.75 50.2 115.2 51.65 116.65 53.05 116.65 55.15 116.65 57.2 115.2 58.65&#10;M 115.2 158.85&#10;Q 113.75 160.25 111.7 160.25 109.65 160.25 108.2 158.85 106.75 157.4 106.75 155.35 106.75 153.25 108.2 151.85 109.65 150.4 111.7 150.4 113.75 150.4 115.2 151.85 116.65 153.25 116.65 155.35 116.65 157.4 115.2 158.85&#10;M 153 45.3&#10;Q 148.85 41.1 142.95 41.1 137.05 41.1 132.85 45.3 128.7 49.3 128.7 55.35 128.7 61.25 132.85 65.45 133.95 66.5 135.2 67.3&#10;L 135.3 143.5&#10;Q 134 144.35 132.85 145.5 128.7 149.5 128.7 155.55 128.7 161.45 132.85 165.65 137.05 169.65 142.95 169.65 148.85 169.65 153 165.65 157.2 161.45 157.2 155.55 157.2 149.5 153 145.5 151.8 144.3 150.5 143.45&#10;L 150.35 67.5&#10;Q 151.75 66.65 153 65.45 157.2 61.25 157.2 55.35 157.2 49.3 153 45.3&#10;M 143.2 50.2&#10;Q 145.25 50.2 146.7 51.65 148.15 53.05 148.15 55.15 148.15 57.2 146.7 58.65 145.25 60.05 143.2 60.05 141.15 60.05 139.7 58.65 138.25 57.2 138.25 55.15 138.25 53.05 139.7 51.65 141.15 50.2 143.2 50.2&#10;M 143.2 150.4&#10;Q 145.25 150.4 146.7 151.85 148.15 153.25 148.15 155.35 148.15 157.4 146.7 158.85 145.25 160.25 143.2 160.25 141.15 160.25 139.7 158.85 138.25 157.4 138.25 155.35 138.25 153.25 139.7 151.85 141.15 150.4 143.2 150.4&#10;M 269.05 183.2&#10;L 284.6 183.2 284.6 110.4 269.05 110.4 269.05 183.2&#10;M 201.85 183.15&#10;L 217.4 183.15 217.4 110.35 201.85 110.35 201.85 183.15&#10;M 235.9 110.35&#10;L 235.9 183.15 251.45 183.15 251.45 110.35 235.9 110.35&#10;M 186.3 110.1&#10;L 170.15 110.1 170.2 180.85 102.95 180.85 102.95 257.85 54.3 257.9 54.3 195.95 69.8 195.95 69.8 239.5 84.7 239.5 84.65 180.75 38.15 180.75 38.15 272.95 119.35 272.95 119.35 195.9 186.3 196 186.3 110.1&#10;M 319.35 17.55&#10;L 298.4 27.5 298.4 61.45 258.65 61.45 258.65 4.35 229.3 4.35 229.3 61.45 188.8 61.45 188.8 27.3 169 18.35 169 89.7 319.35 89.7 319.35 17.55&#10;M 483.25 375.8&#10;L 483.25 360.15 336.25 360.15 336.25 503.4 351.35 503.4 351.35 375.8 483.25 375.8&#10;M 449.4 390.65&#10;Q 448.45 391.5 448.05 392.05&#10;L 369.05 392 369.05 503.65 385.55 503.65 385.55 408.3 447.4 408.3&#10;Q 448.3 409.7 449.4 410.8 453.55 414.8 459.45 414.8 465.35 414.8 469.55 410.8 473.7 406.6 473.7 400.7 473.7 394.65 469.55 390.65 465.35 386.45 459.45 386.45 453.55 386.45 449.4 390.65&#10;M 462.7 397&#10;Q 464.15 398.4 464.15 400.5 464.15 402.55 462.7 404 461.25 405.4 459.2 405.4 457.15 405.4 455.7 404 454.25 402.55 454.25 400.5 454.25 398.4 455.7 397 457.15 395.55 459.2 395.55 461.25 395.55 462.7 397&#10;M 336.15 326.15&#10;L 336.15 341.55 483.45 341.55 483.45 326.15 336.15 326.15&#10;M 335.6 264.2&#10;L 335.6 212.65 318.65 212.65 318.65 235.05 272.55 245.25 272.55 294.55 289.8 294.55 289.75 273.1 335.6 264.2&#10;M 482.4 149.4&#10;L 417.1 149.35 417.1 90 401.9 90 401.9 164.95 468 164.95 468 293.4 370.05 293.35 370.05 308.5 482.4 308.5 482.4 149.4&#10;M 418.7 196.2&#10;L 434.2 196.2 434.2 258.15 385.55 258.1 385.6 181.1 318.35 181.1 318.4 110.35 302.2 110.35 302.15 196.25 369.2 196.15 369.15 273.2 450.4 273.2 450.4 181 403.85 181 403.85 239.75 418.7 239.75 418.7 196.2&#10;M 355.55 45.3&#10;Q 351.35 41.1 345.45 41.1 339.55 41.1 335.4 45.3 331.2 49.3 331.2 55.35 331.2 61.25 335.4 65.45 336.55 66.55 337.75 67.3&#10;L 337.85 143.5&#10;Q 336.6 144.35 335.4 145.5 331.2 149.5 331.2 155.55 331.2 161.45 335.4 165.65 339.55 169.65 345.45 169.65 351.35 169.65 355.55 165.65 359.7 161.45 359.7 155.55 359.7 149.5 355.55 145.5 354.25 144.2 352.9 143.35&#10;L 352.95 67.45&#10;Q 354.05 66.8 355.55 65.45 359.7 61.25 359.7 55.35 359.7 49.3 355.55 45.3&#10;M 345.2 50.2&#10;Q 347.25 50.2 348.7 51.65 350.15 53.05 350.15 55.15 350.15 57.2 348.7 58.65 347.25 60.05 345.2 60.05 343.15 60.05 341.7 58.65 340.25 57.2 340.25 55.15 340.25 53.05 341.7 51.65 343.15 50.2 345.2 50.2&#10;M 345.2 150.4&#10;Q 347.25 150.4 348.7 151.85 350.15 153.25 350.15 155.35 350.15 157.4 348.7 158.85 347.25 160.25 345.2 160.25 343.15 160.25 341.7 158.85 340.25 157.4 340.25 155.35 340.25 153.25 341.7 151.85 343.15 150.4 345.2 150.4&#10;M 387.05 45.3&#10;Q 382.85 41.1 376.95 41.1 371.05 41.1 366.9 45.3 362.7 49.3 362.7 55.35 362.7 61.25 366.9 65.45 367.7 66.25 368.75 67&#10;L 368.75 143.9&#10;Q 367.95 144.45 366.9 145.5 362.7 149.5 362.7 155.55 362.7 161.45 366.9 165.65 371.05 169.65 376.95 169.65 382.85 169.65 387.05 165.65 391.2 161.45 391.2 155.55 391.2 149.5 387.05 145.5 385.65 144.1 383.9 143.1&#10;L 383.85 67.8&#10;Q 385.65 66.8 387.05 65.45 391.2 61.25 391.2 55.35 391.2 49.3 387.05 45.3&#10;M 381.65 55.15&#10;Q 381.65 57.2 380.2 58.65 378.75 60.05 376.7 60.05 374.65 60.05 373.2 58.65 371.75 57.2 371.75 55.15 371.75 53.05 373.2 51.65 374.65 50.2 376.7 50.2 378.75 50.2 380.2 51.65 381.65 53.05 381.65 55.15&#10;M 381.65 155.35&#10;Q 381.65 157.4 380.2 158.85 378.75 160.25 376.7 160.25 374.65 160.25 373.2 158.85 371.75 157.4 371.75 155.35 371.75 153.25 373.2 151.85 374.65 150.4 376.7 150.4 378.75 150.4 380.2 151.85 381.65 153.25 381.65 155.35&#10;M 450.4 90.1&#10;L 433.9 90.1 433.9 132.55 450.4 132.55 450.4 90.1 Z"/>
        </g>
        <g id="Mask_1_MASK_0_FILL">
            <path fill="#FFFFFF" stroke="none" d="&#10;M 405.95 455.95&#10;L 405.95 472.25 447.6 472.25&#10;Q 448.35 473.35 449.4 474.4 453.55 478.4 459.45 478.4 465.35 478.4 469.55 474.4 473.7 470.2 473.7 464.3 473.7 458.25 469.55 454.25 465.35 450.05 459.45 450.05 453.55 450.05 449.4 454.25 448.5 455.1 447.8 456.1&#10;L 405.95 455.95&#10;M 459.2 459.15&#10;Q 461.25 459.15 462.7 460.6 464.15 462 464.15 464.1 464.15 466.15 462.7 467.6 461.25 469 459.2 469 457.15 469 455.7 467.6 454.25 466.15 454.25 464.1 454.25 462 455.7 460.6 457.15 459.15 459.2 459.15&#10;M 449.4 422.15&#10;Q 448.5 423 448 423.65&#10;L 405.95 423.6 405.95 439.9 447.45 439.9&#10;Q 448.3 441.2 449.4 442.3 453.55 446.3 459.45 446.3 465.35 446.3 469.55 442.3 473.7 438.1 473.7 432.2 473.7 426.15 469.55 422.15 465.35 417.95 459.45 417.95 453.55 417.95 449.4 422.15&#10;M 455.7 428.5&#10;Q 457.15 427.05 459.2 427.05 461.25 427.05 462.7 428.5 464.15 429.9 464.15 432 464.15 434.05 462.7 435.5 461.25 436.9 459.2 436.9 457.15 436.9 455.7 435.5 454.25 434.05 454.25 432 454.25 429.9 455.7 428.5&#10;M 82.65 472.15&#10;L 82.65 455.85 40.45 455.85&#10;Q 39.8 455 39 454.25 34.85 450.05 28.95 450.05 23.05 450.05 18.85 454.25 14.7 458.25 14.7 464.3 14.7 470.2 18.85 474.4 23.05 478.4 28.95 478.4 34.85 478.4 39 474.4 40.05 473.35 40.9 472.15&#10;L 82.65 472.15&#10;M 25.7 460.6&#10;Q 27.15 459.15 29.2 459.15 31.25 459.15 32.7 460.6 34.15 462 34.15 464.1 34.15 466.15 32.7 467.6 31.25 469 29.2 469 27.15 469 25.7 467.6 24.25 466.15 24.25 464.1 24.25 462 25.7 460.6&#10;M 82.65 439.8&#10;L 82.65 423.5 40.25 423.5&#10;Q 39.7 422.8 39 422.15 34.85 417.95 28.95 417.95 23.05 417.95 18.85 422.15 14.7 426.15 14.7 432.2 14.7 438.1 18.85 442.3 23.05 446.3 28.95 446.3 34.85 446.3 39 442.3 40.2 441.1 41.05 439.8&#10;L 82.65 439.8&#10;M 32.7 428.5&#10;Q 34.15 429.9 34.15 432 34.15 434.05 32.7 435.5 31.25 436.9 29.2 436.9 27.15 436.9 25.7 435.5 24.25 434.05 24.25 432 24.25 429.9 25.7 428.5 27.15 427.05 29.2 427.05 31.25 427.05 32.7 428.5&#10;M 217.35 489.15&#10;L 201.65 489.15 201.65 550.55 217.35 550.55 217.35 489.15&#10;M 186.95 441.05&#10;L 169.65 441.05 169.65 550.55 186.95 550.55 186.95 441.05&#10;M 285.4 489.15&#10;L 269.25 489.15 269.25 550.55 285.4 550.55 285.4 489.15&#10;M 269.25 441.05&#10;L 269.25 456.75 217.35 456.75 217.35 441.05 201.65 441.05 201.65 473.05 234.95 473.05 234.95 550.55 251.35 550.55 251.35 473.05 285.4 473.05 285.4 441.05 269.25 441.05&#10;M 318.7 441.05&#10;L 301.35 441.05 301.35 550.55 318.7 550.55 318.7 441.05&#10;M 207.1 314.15&#10;L 207.1 345.3 235.35 345.3 235.35 373.7 185.3 389.05 185.3 358.1 169.15 358.1 169.2 425.55 243.35 404.45 318.8 425.85 318.8 358 300.95 357.9 301 388.7 251.45 373.85 251.5 345.3 279.85 345.3 279.85 314.15 207.1 314.15&#10;M 28.95 386.45&#10;Q 23.05 386.45 18.85 390.65 14.7 394.65 14.7 400.7 14.7 406.6 18.85 410.8 23.05 414.8 28.95 414.8 34.85 414.8 39 410.8 40.25 409.55 41.1 408.2&#10;L 103.05 408.2 103.05 503.55 119.55 503.55 119.55 391.9 40.2 391.9&#10;Q 39.65 391.25 39 390.65 34.85 386.45 28.95 386.45&#10;M 24.25 400.5&#10;Q 24.25 398.4 25.7 397 27.15 395.55 29.2 395.55 31.25 395.55 32.7 397 34.15 398.4 34.15 400.5 34.15 402.55 32.7 404 31.25 405.4 29.2 405.4 27.15 405.4 25.7 404 24.25 402.55 24.25 400.5&#10;M 5.35 360.05&#10;L 5.35 375.7 137.25 375.7 137.25 503.3 152.35 503.3 152.35 360.05 5.35 360.05&#10;M 5.2 326.1&#10;L 5.2 341.5 152.5 341.5 152.5 326.1 5.2 326.1&#10;M 147.3 213&#10;L 147.3 264.6 193.15 273.5 193.1 294.95 210.35 294.95 210.35 245.65 164.25 235.45 164.25 213 147.3 213&#10;M 71.55 149.35&#10;L 6.25 149.35 6.25 308.5 118.6 308.5 118.6 293.3 20.65 293.35 20.65 164.95 86.75 164.9 86.75 90 71.55 90 71.55 149.35&#10;M 54.75 90.05&#10;L 38.25 90.05 38.25 132.5 54.75 132.5 54.75 90.05&#10;M 111.45 41.1&#10;Q 105.55 41.1 101.35 45.3 97.2 49.3 97.2 55.35 97.2 61.25 101.35 65.45 102.35 66.45 103.75 67.35&#10;L 103.75 139.7 103.75 143.55&#10;Q 102.5 144.4 101.35 145.5 97.2 149.5 97.2 155.55 97.2 161.45 101.35 165.65 105.6 169.65 111.45 169.65 117.35 169.65 121.5 165.65 125.7 161.45 125.7 155.55 125.7 149.5 121.5 145.5 120.3 144.3 119 143.45&#10;L 119 143.3 119 142.7 119 139.7 118.95 68.05 119 67.4&#10;Q 120.35 66.5 121.5 65.45 125.7 61.25 125.7 55.35 125.7 49.3 121.5 45.3 117.4 41.1 111.45 41.1&#10;M 115.2 58.65&#10;Q 113.75 60.05 111.7 60.05 109.65 60.05 108.2 58.65 106.75 57.2 106.75 55.15 106.75 53.05 108.2 51.65 109.65 50.2 111.7 50.2 113.75 50.2 115.2 51.65 116.65 53.05 116.65 55.15 116.65 57.2 115.2 58.65&#10;M 115.2 158.85&#10;Q 113.75 160.25 111.7 160.25 109.65 160.25 108.2 158.85 106.75 157.4 106.75 155.35 106.75 153.25 108.2 151.85 109.65 150.4 111.7 150.4 113.75 150.4 115.2 151.85 116.65 153.25 116.65 155.35 116.65 157.4 115.2 158.85&#10;M 153 45.3&#10;Q 148.85 41.1 142.95 41.1 137.05 41.1 132.85 45.3 128.7 49.3 128.7 55.35 128.7 61.25 132.85 65.45 133.95 66.5 135.2 67.3&#10;L 135.3 143.5&#10;Q 134 144.35 132.85 145.5 128.7 149.5 128.7 155.55 128.7 161.45 132.85 165.65 137.05 169.65 142.95 169.65 148.85 169.65 153 165.65 157.2 161.45 157.2 155.55 157.2 149.5 153 145.5 151.8 144.3 150.5 143.45&#10;L 150.35 67.5&#10;Q 151.75 66.65 153 65.45 157.2 61.25 157.2 55.35 157.2 49.3 153 45.3&#10;M 143.2 50.2&#10;Q 145.25 50.2 146.7 51.65 148.15 53.05 148.15 55.15 148.15 57.2 146.7 58.65 145.25 60.05 143.2 60.05 141.15 60.05 139.7 58.65 138.25 57.2 138.25 55.15 138.25 53.05 139.7 51.65 141.15 50.2 143.2 50.2&#10;M 143.2 150.4&#10;Q 145.25 150.4 146.7 151.85 148.15 153.25 148.15 155.35 148.15 157.4 146.7 158.85 145.25 160.25 143.2 160.25 141.15 160.25 139.7 158.85 138.25 157.4 138.25 155.35 138.25 153.25 139.7 151.85 141.15 150.4 143.2 150.4&#10;M 269.05 183.2&#10;L 284.6 183.2 284.6 110.4 269.05 110.4 269.05 183.2&#10;M 235.9 110.35&#10;L 235.9 183.15 251.45 183.15 251.45 110.35 235.9 110.35&#10;M 201.85 183.15&#10;L 217.4 183.15 217.4 110.35 201.85 110.35 201.85 183.15&#10;M 186.3 110.1&#10;L 170.15 110.1 170.2 180.85 102.95 180.85 102.95 257.85 54.3 257.9 54.3 195.95 69.8 195.95 69.8 239.5 84.7 239.5 84.65 180.75 38.15 180.75 38.15 272.95 119.35 272.95 119.35 195.9 186.3 196 186.3 110.1&#10;M 319.35 17.55&#10;L 298.4 27.5 298.4 61.45 258.65 61.45 258.65 4.35 229.3 4.35 229.3 61.45 188.8 61.45 188.8 27.3 169 18.35 169 89.7 319.35 89.7 319.35 17.55&#10;M 449.4 390.65&#10;Q 448.45 391.5 448.05 392.05&#10;L 369.05 392 369.05 503.65 385.55 503.65 385.55 408.3 447.4 408.3&#10;Q 448.3 409.7 449.4 410.8 453.55 414.8 459.45 414.8 465.35 414.8 469.55 410.8 473.7 406.6 473.7 400.7 473.7 394.65 469.55 390.65 465.35 386.45 459.45 386.45 453.55 386.45 449.4 390.65&#10;M 462.7 397&#10;Q 464.15 398.4 464.15 400.5 464.15 402.55 462.7 404 461.25 405.4 459.2 405.4 457.15 405.4 455.7 404 454.25 402.55 454.25 400.5 454.25 398.4 455.7 397 457.15 395.55 459.2 395.55 461.25 395.55 462.7 397&#10;M 483.25 375.8&#10;L 483.25 360.15 336.25 360.15 336.25 503.4 351.35 503.4 351.35 375.8 483.25 375.8&#10;M 336.15 326.15&#10;L 336.15 341.55 483.45 341.55 483.45 326.15 336.15 326.15&#10;M 335.6 264.2&#10;L 335.6 212.65 318.65 212.65 318.65 235.05 272.55 245.25 272.55 294.55 289.8 294.55 289.75 273.1 335.6 264.2&#10;M 482.4 149.4&#10;L 417.1 149.35 417.1 90 401.9 90 401.9 164.95 468 164.95 468 293.4 370.05 293.35 370.05 308.5 482.4 308.5 482.4 149.4&#10;M 418.7 196.2&#10;L 434.2 196.2 434.2 258.15 385.55 258.1 385.6 181.1 318.35 181.1 318.4 110.35 302.2 110.35 302.15 196.25 369.2 196.15 369.15 273.2 450.4 273.2 450.4 181 403.85 181 403.85 239.75 418.7 239.75 418.7 196.2&#10;M 355.55 45.3&#10;Q 351.35 41.1 345.45 41.1 339.55 41.1 335.4 45.3 331.2 49.3 331.2 55.35 331.2 61.25 335.4 65.45 336.55 66.55 337.75 67.3&#10;L 337.85 143.5&#10;Q 336.6 144.35 335.4 145.5 331.2 149.5 331.2 155.55 331.2 161.45 335.4 165.65 339.55 169.65 345.45 169.65 351.35 169.65 355.55 165.65 359.7 161.45 359.7 155.55 359.7 149.5 355.55 145.5 354.25 144.2 352.9 143.35&#10;L 352.95 67.45&#10;Q 354.05 66.8 355.55 65.45 359.7 61.25 359.7 55.35 359.7 49.3 355.55 45.3&#10;M 345.2 50.2&#10;Q 347.25 50.2 348.7 51.65 350.15 53.05 350.15 55.15 350.15 57.2 348.7 58.65 347.25 60.05 345.2 60.05 343.15 60.05 341.7 58.65 340.25 57.2 340.25 55.15 340.25 53.05 341.7 51.65 343.15 50.2 345.2 50.2&#10;M 345.2 150.4&#10;Q 347.25 150.4 348.7 151.85 350.15 153.25 350.15 155.35 350.15 157.4 348.7 158.85 347.25 160.25 345.2 160.25 343.15 160.25 341.7 158.85 340.25 157.4 340.25 155.35 340.25 153.25 341.7 151.85 343.15 150.4 345.2 150.4&#10;M 387.05 45.3&#10;Q 382.85 41.1 376.95 41.1 371.05 41.1 366.9 45.3 362.7 49.3 362.7 55.35 362.7 61.25 366.9 65.45 367.7 66.25 368.75 67&#10;L 368.75 143.9&#10;Q 367.95 144.45 366.9 145.5 362.7 149.5 362.7 155.55 362.7 161.45 366.9 165.65 371.05 169.65 376.95 169.65 382.85 169.65 387.05 165.65 391.2 161.45 391.2 155.55 391.2 149.5 387.05 145.5 385.65 144.1 383.9 143.1&#10;L 383.85 67.8&#10;Q 385.65 66.8 387.05 65.45 391.2 61.25 391.2 55.35 391.2 49.3 387.05 45.3&#10;M 381.65 55.15&#10;Q 381.65 57.2 380.2 58.65 378.75 60.05 376.7 60.05 374.65 60.05 373.2 58.65 371.75 57.2 371.75 55.15 371.75 53.05 373.2 51.65 374.65 50.2 376.7 50.2 378.75 50.2 380.2 51.65 381.65 53.05 381.65 55.15&#10;M 381.65 155.35&#10;Q 381.65 157.4 380.2 158.85 378.75 160.25 376.7 160.25 374.65 160.25 373.2 158.85 371.75 157.4 371.75 155.35 371.75 153.25 373.2 151.85 374.65 150.4 376.7 150.4 378.75 150.4 380.2 151.85 381.65 153.25 381.65 155.35&#10;M 450.4 90.1&#10;L 433.9 90.1 433.9 132.55 450.4 132.55 450.4 90.1 Z"/>
        </g>
        <g id="_________34_0_Layer0_0_FILL">
            <path fill="url(#Gradient_1)" stroke="none" d="&#10;M 93.45 -93.45&#10;Q 54.75 -132.15 0 -132.15 -54.75 -132.15 -93.45 -93.45 -132.2 -54.7 -132.2 0 -132.2 54.75 -93.45 93.45 -54.75 132.2 0 132.2 54.75 132.2 93.45 93.45 132.2 54.75 132.2 0 132.2 -54.7 93.45 -93.45&#10;M 0.45 -71.45&#10;Q 30.2 -71.45 51.25 -50.35 72.35 -29.3 72.35 0.45 72.35 30.15 51.25 51.25 30.2 72.35 0.45 72.35 -29.3 72.35 -50.35 51.25 -71.45 30.15 -71.45 0.45 -71.45 -29.3 -50.35 -50.35 -29.3 -71.45 0.45 -71.45 Z"/>
        </g>
    </defs>
    <g id="BkElYpiLnjz">
        <use xlink:href="#Layer2_0_FILL" id="rJBlFao8hjG"/>
    </g>
    <mask id="Mask_Mask_1">
        <g transform="matrix( 1, 0, 0, 1, 0,0) ">
            <use xlink:href="#Mask_1_MASK_0_FILL"/>
        </g>
    </mask>
    <g mask="url(#Mask_Mask_1)" id="rJUeYTjInof">
        <g id="rJvgtpiI2iz">
            <g id="rkueF6iLhsM_BJHCh8hjM" data-animator-group="true" data-animator-type="0">
                <g id="rkueF6iLhsM_Skh0nLhsM" data-animator-group="true" data-animator-type="2">
                    <g id="rkueF6iLhsM">
                        <use filter="url(#Filter_1)" xlink:href="#_________34_0_Layer0_0_FILL" id="B1FetTjIhjG"/>
                    </g>
                </g>
            </g>
        </g>
    </g>
</svg>